<?xml version="1.0" encoding="utf-8"?>
<!-- Generator: Adobe Illustrator 22.0.0, SVG Export Plug-In . SVG Version: 6.00 Build 0)  -->
<svg version="1.1" id="Capa_1" xmlns="http://www.w3.org/2000/svg" xmlns:xlink="http://www.w3.org/1999/xlink" x="0px" y="0px"
	 viewBox="0 0 3061.4 3061.4" style="enable-background:new 0 0 3061.4 3061.4;" xml:space="preserve">
<style type="text/css">
	.st0{fill:#FFFFFF;}
</style>
<path class="st0" d="M1868.7,1757.9c-78.2,0-141.7-24.6-190.3-73.9c-48.6-49.3-72.9-114.9-72.9-196.9v-15.2
	c0-54.9,10.6-103.9,31.8-147.1c21.2-43.2,50.9-76.8,89.2-100.8c38.3-24,80.9-36.1,128-36.1c74.8,0,132.7,23.9,173.5,71.6
	c40.8,47.8,61.2,115.3,61.2,202.7v49.8H1730c3.7,45.4,18.9,81.3,45.5,107.7c26.6,26.4,60,39.6,100.3,39.6
	c56.6,0,102.6-22.9,138.2-68.6l66.5,63.5c-22,32.9-51.4,58.3-88.1,76.5C1955.7,1748.9,1914.4,1757.9,1868.7,1757.9z M1854,1287
	c-33.9,0-61.2,11.9-82.1,35.6c-20.8,23.7-34.1,56.7-39.9,99.1h235.2v-9.2c-2.7-41.3-13.7-72.6-33-93.7
	C1914.9,1297.6,1888.2,1287,1854,1287z"/>
<path class="st0" d="M2161.9,1467.8c0-53.9,10.7-102.4,32-145.5c21.3-43.2,51.3-76.4,89.9-99.6c38.6-23.2,83-34.8,133.1-34.8
	c74.2,0,134.4,23.9,180.6,71.6c46.2,47.8,71.2,111.1,74.9,190l0.5,29c0,54.2-10.4,102.6-31.2,145.3c-20.8,42.7-50.6,75.7-89.4,99.1
	c-38.8,23.4-83.6,35-134.4,35c-77.6,0-139.6-25.8-186.2-77.5c-46.6-51.6-69.9-120.5-69.9-206.5V1467.8z M2285.3,1478.5
	c0,56.6,11.7,100.8,35.1,132.9c23.4,32,55.9,48,97.5,48c41.7,0,74.1-16.3,97.3-48.8c23.2-32.5,34.8-80.1,34.8-142.8
	c0-55.5-11.9-99.6-35.8-132.1c-23.9-32.5-56.3-48.8-97.3-48.8c-40.3,0-72.3,16-96,48C2297.2,1367,2285.3,1414.8,2285.3,1478.5z"/>
<path class="st0" d="M2908.7,1747.8h-123.5V967.4h123.5V1747.8z"/>
<path class="st0" d="M1631.9,1946.2l64.9,26.2v20.3l-84.8-39.3v-15.1l84.8-39.2v20.3L1631.9,1946.2z"/>
<path class="st0" d="M1792.3,1983.2c0-5.2-2-9.2-5.9-12.1c-3.9-2.9-10.7-5.3-20.4-7.4c-9.7-2.1-17.4-4.6-23.1-7.5
	s-9.9-6.4-12.6-10.4c-2.7-4-4.1-8.8-4.1-14.3c0-9.2,3.9-17,11.7-23.3c7.8-6.4,17.7-9.5,29.8-9.5c12.7,0,23,3.3,30.9,9.8
	c7.9,6.6,11.9,15,11.9,25.2h-19.3c0-5.3-2.2-9.8-6.7-13.6s-10.1-5.7-16.8-5.7c-7,0-12.4,1.5-16.4,4.6s-5.9,7-5.9,11.9
	c0,4.6,1.8,8.1,5.5,10.5c3.7,2.4,10.3,4.6,19.9,6.7s17.3,4.7,23.3,7.7c5.9,3,10.4,6.6,13.2,10.7s4.3,9.3,4.3,15.3
	c0,10-4,18.1-12,24.1s-18.4,9.1-31.2,9.1c-9,0-16.9-1.6-23.8-4.8s-12.3-7.6-16.2-13.3c-3.9-5.7-5.9-11.9-5.9-18.5h19.2
	c0.3,6.4,2.9,11.5,7.7,15.3c4.8,3.8,11.1,5.6,19,5.6c7.3,0,13.1-1.5,17.5-4.4S1792.3,1988.2,1792.3,1983.2z"/>
<path class="st0" d="M1831.4,1955.9c0-11,2.2-20.9,6.5-29.6c4.3-8.8,10.3-15.5,18-20.3c7.7-4.8,16.5-7.2,26.4-7.2
	c15.3,0,27.6,5.3,37.1,15.9s14.1,24.6,14.1,42.2v1.3c0,10.9-2.1,20.7-6.3,29.4c-4.2,8.7-10.2,15.4-17.9,20.3
	c-7.8,4.8-16.7,7.3-26.8,7.3c-15.2,0-27.5-5.3-37-15.9c-9.4-10.6-14.1-24.6-14.1-42V1955.9z M1850.6,1958.2c0,12.4,2.9,22.4,8.7,30
	c5.8,7.5,13.5,11.3,23.2,11.3c9.7,0,17.5-3.8,23.2-11.5c5.7-7.6,8.6-18.3,8.6-32.1c0-12.3-2.9-22.3-8.8-29.9
	c-5.8-7.6-13.6-11.5-23.3-11.5c-9.5,0-17.1,3.8-22.9,11.3C1853.5,1933.4,1850.6,1944.1,1850.6,1958.2z"/>
<path class="st0" d="M1978.3,2013h-19.2v-159.2h19.2V2013z"/>
<path class="st0" d="M2078.3,2001.9c-7.5,8.8-18.4,13.2-32.9,13.2c-12,0-21.1-3.5-27.3-10.4s-9.4-17.2-9.5-30.8v-73h19.2v72.5
	c0,17,6.9,25.5,20.7,25.5c14.7,0,24.4-5.5,29.2-16.4v-81.6h19.2V2013h-18.2L2078.3,2001.9z"/>
<path class="st0" d="M2152.1,1873.7v27.2h20.9v14.8h-20.9v69.6c0,4.5,0.9,7.9,2.8,10.1c1.9,2.2,5,3.4,9.5,3.4c2.2,0,5.3-0.4,9.1-1.2
	v15.5c-5,1.4-10,2.1-14.7,2.1c-8.6,0-15-2.6-19.4-7.8s-6.5-12.5-6.5-22.1v-69.6h-20.4v-14.8h20.4v-27.2H2152.1z"/>
<path class="st0" d="M2195.5,1871.1c0-3.1,0.9-5.7,2.9-7.9s4.7-3.2,8.4-3.2c3.7,0,6.6,1.1,8.5,3.2c1.9,2.1,2.9,4.8,2.9,7.9
	c0,3.1-1,5.7-2.9,7.8c-1.9,2.1-4.8,3.1-8.5,3.1c-3.7,0-6.5-1-8.4-3.1C2196.5,1876.8,2195.5,1874.2,2195.5,1871.1z M2216.2,2013
	h-19.2v-112.2h19.2V2013z"/>
<path class="st0" d="M2241.8,1955.9c0-11,2.2-20.9,6.5-29.6c4.3-8.8,10.3-15.5,18-20.3s16.5-7.2,26.4-7.2c15.3,0,27.6,5.3,37.1,15.9
	c9.4,10.6,14.1,24.6,14.1,42.2v1.3c0,10.9-2.1,20.7-6.3,29.4s-10.2,15.4-17.9,20.3c-7.8,4.8-16.7,7.3-26.8,7.3
	c-15.2,0-27.5-5.3-37-15.9c-9.4-10.6-14.1-24.6-14.1-42V1955.9z M2261.1,1958.2c0,12.4,2.9,22.4,8.7,30c5.8,7.5,13.5,11.3,23.2,11.3
	c9.7,0,17.5-3.8,23.2-11.5c5.7-7.6,8.6-18.3,8.6-32.1c0-12.3-2.9-22.3-8.8-29.9c-5.8-7.6-13.6-11.5-23.3-11.5
	c-9.5,0-17.1,3.8-22.9,11.3C2264,1933.4,2261.1,1944.1,2261.1,1958.2z"/>
<path class="st0" d="M2386.1,1900.8l0.6,14.1c8.6-10.8,19.8-16.2,33.6-16.2c23.7,0,35.7,13.4,35.9,40.1v74.1H2437v-74.2
	c-0.1-8.1-1.9-14.1-5.5-17.9c-3.6-3.9-9.3-5.8-16.9-5.8c-6.2,0-11.7,1.7-16.4,5c-4.7,3.3-8.4,7.7-11,13.1v79.9H2368v-112.2H2386.1z"
	/>
<path class="st0" d="M2550.4,1983.2c0-5.2-2-9.2-5.9-12.1c-3.9-2.9-10.7-5.3-20.4-7.4c-9.7-2.1-17.4-4.6-23.1-7.5
	c-5.7-2.9-9.9-6.4-12.6-10.4c-2.7-4-4.1-8.8-4.1-14.3c0-9.2,3.9-17,11.7-23.3s17.7-9.5,29.8-9.5c12.7,0,23,3.3,30.9,9.8
	c7.9,6.6,11.9,15,11.9,25.2h-19.3c0-5.3-2.2-9.8-6.7-13.6c-4.5-3.8-10.1-5.7-16.8-5.7c-7,0-12.4,1.5-16.4,4.6c-3.9,3-5.9,7-5.9,11.9
	c0,4.6,1.8,8.1,5.5,10.5c3.7,2.4,10.3,4.6,19.9,6.7s17.3,4.7,23.3,7.7c5.9,3,10.4,6.6,13.2,10.7s4.3,9.3,4.3,15.3
	c0,10-4,18.1-12,24.1s-18.4,9.1-31.2,9.1c-9,0-16.9-1.6-23.8-4.8c-6.9-3.2-12.3-7.6-16.2-13.3s-5.9-11.9-5.9-18.5h19.2
	c0.3,6.4,2.9,11.5,7.7,15.3s11.1,5.6,19,5.6c7.3,0,13.1-1.5,17.5-4.4C2548.2,1992.1,2550.4,1988.2,2550.4,1983.2z"/>
<path class="st0" d="M2598.4,2026H2582l63-163.9h16.4L2598.4,2026z"/>
<path class="st0" d="M2750,1945.6l-68.5-26.8v-19.7l88.5,39.2v15.1l-88.5,39.3v-19.9L2750,1945.6z"/>
<g id="XMLID_5_">
	<g>
		<path class="st0" d="M1437.3,1477.3c0,15.7-0.7,31.2-2,46.4h-168.1v-324.5l56.7-56.7C1395.1,1235.4,1437.3,1351.4,1437.3,1477.3z"
			/>
		<path class="st0" d="M1267.2,1523.8h168.1c-10.9,131.1-67.7,249.1-154.3,338.1h-13.8V1523.8z"/>
		<path class="st0" d="M1324,1142.6l-56.7,56.7V1098h18.7C1299.4,1112.1,1312.2,1127,1324,1142.6z"/>
		<path class="st0" d="M1286,1098h-18.7v-18.8C1273.6,1085.2,1279.9,1091.5,1286,1098z"/>
		<path class="st0" d="M1281,1861.8c-4.5,4.6-9.1,9.2-13.8,13.7v-13.7H1281z"/>
		<path class="st0" d="M1267.2,1861.8v13.7c-46.8,44.8-101.4,81.5-161.8,107.6v-121.3H1267.2z"/>
		<path class="st0" d="M1267.2,1523.8v338.1h-161.8v-78.5c82.4-60.2,139.3-153,151.7-259.6H1267.2z"/>
		<path class="st0" d="M1267.2,1199.3v324.5h-10c1.7-14.4,2.6-29.2,2.6-44.1c0-77.5-23.4-149.5-63.6-209.3L1267.2,1199.3z"/>
		<path class="st0" d="M1267.2,1098v101.3l-71.1,71.1c-24.5-36.5-55.2-68.5-90.7-94.4v-44.1l34-34H1267.2z"/>
		<path class="st0" d="M1267.2,1079.2v18.8h-127.8l68.3-68.3C1228.8,1044.7,1248.6,1061.3,1267.2,1079.2z"/>
		<path class="st0" d="M1259.8,1479.7c0,14.9-0.9,29.7-2.6,44.1h-151.7v-162.7l90.7-90.7C1236.4,1330.2,1259.8,1402.2,1259.8,1479.7
			z"/>
		<path class="st0" d="M1207.8,1029.7l-68.3,68.3h-34V971.5C1141.8,987.2,1176.1,1006.8,1207.8,1029.7z"/>
		<polygon class="st0" points="1139.5,1098 1105.5,1131.9 1105.5,1098 		"/>
		<path class="st0" d="M1105.5,1861.8v121.3c-67.2,29.2-141.4,45.4-219.4,45.4c-0.7,0-1.4,0-2.2,0v-166.7H1105.5z"/>
		<path class="st0" d="M1105.5,1783.3v78.5H883.9v-6.3C966.8,1855.6,1043.4,1828.8,1105.5,1783.3z"/>
		<path class="st0" d="M1105.5,1361.1v162.7h-11.3c3.4-15.2,5.2-30.9,5.2-47.1c0-32.1-7-62.5-19.6-89.9L1105.5,1361.1z"/>
		<path class="st0" d="M1105.5,1131.9v44.1c-8.5-6.2-17.3-12.1-26.4-17.6L1105.5,1131.9z"/>
		<path class="st0" d="M1105.5,1098v34l-26.4,26.4c-56.9-34.6-123.7-54.6-195.2-54.6v-5.8H1105.5z"/>
		<path class="st0" d="M1105.5,971.5V1098H883.9V926.1c0.7,0,1.4,0,2.2,0C964.1,926.1,1038.3,942.3,1105.5,971.5z"/>
		<path class="st0" d="M1099.4,1476.6c0,16.2-1.8,32-5.2,47.1H942.8l137-137C1092.4,1414.1,1099.4,1444.5,1099.4,1476.6z"/>
		<path class="st0" d="M942.8,1523.8h151.4c-21.5,96.3-107.5,168.3-210.3,168.3v-109.4L942.8,1523.8z"/>
		<path class="st0" d="M961.7,1275.7l-77.8,77.8v-92.3C911.3,1261.2,937.6,1266.3,961.7,1275.7z"/>
		<polygon class="st0" points="942.8,1523.8 883.9,1582.6 883.9,1523.8 		"/>
		<path class="st0" d="M883.9,1861.8v166.7c-76.9-0.3-150-16.3-216.4-45v-121.7H883.9z"/>
		<path class="st0" d="M883.9,1855.6v6.3H667.5V1799l7.1-7.1C734.4,1832.1,806.5,1855.6,883.9,1855.6z"/>
		<path class="st0" d="M883.9,1582.6v109.4c-32,0-62.5-7-89.8-19.6L883.9,1582.6z"/>
		<path class="st0" d="M883.9,1523.8v58.9l-89.8,89.8c-50.7-23.3-90.9-65.7-111.1-118l30.7-30.7H883.9z"/>
		<path class="st0" d="M883.9,1261.2v92.3l-170.2,170.2h-40c-3.4-15.2-5.2-30.9-5.2-47.1C668.5,1357.6,764.9,1261.2,883.9,1261.2z"
			/>
		<path class="st0" d="M883.9,1098v5.8c-80.6,0-155.2,25.4-216.4,68.5V1098H883.9z"/>
		<path class="st0" d="M883.9,926.1V1098H667.5V971.1C733.9,942.4,807.1,926.3,883.9,926.1z"/>
		<path class="st0" d="M713.7,1523.8l-30.7,30.7c-3.9-9.9-7-20.1-9.3-30.7H713.7z"/>
		<path class="st0" d="M667.5,1861.8v121.7c-41.7-18-80.7-41-116.2-68.3l53.4-53.4H667.5z"/>
		<polygon class="st0" points="667.5,1799 667.5,1861.8 604.7,1861.8 		"/>
		<path class="st0" d="M667.5,1098v74.3c-96.5,68-159.5,180.3-159.5,307.4c0,14.9,0.9,29.7,2.6,44.1h-6.7V1098H667.5z"/>
		<path class="st0" d="M667.5,971.1V1098H503.9v-17.9C551.1,1034.6,606.5,997.5,667.5,971.1z"/>
		<path class="st0" d="M562.6,1674.8l-58.7,58.7v-209.8h6.7C517,1578.6,535.2,1629.8,562.6,1674.8z"/>
		<path class="st0" d="M503.9,1523.8v209.8l-65.5,65.5c-56.7-78.7-93.1-173-101.6-275.3H503.9z"/>
		<path class="st0" d="M503.9,1098v425.8H336.8c-1.3-15.3-2-30.8-2-46.4c0-147,57.5-280.6,151.3-379.4H503.9z"/>
		<path class="st0" d="M503.9,1080.1v17.9h-17.8C491.9,1091.9,497.8,1085.9,503.9,1080.1z"/>
	</g>
	<g>
	</g>
</g>
<path class="st0" d="M1868.7,1757.9c-78.2,0-141.7-24.6-190.3-73.9c-48.6-49.3-72.9-114.9-72.9-196.9v-15.2
	c0-54.9,10.6-103.9,31.8-147.1c21.2-43.2,50.9-76.8,89.2-100.8c38.3-24,80.9-36.1,128-36.1c74.8,0,132.7,23.9,173.5,71.6
	c40.8,47.8,61.2,115.3,61.2,202.7v49.8H1730c3.7,45.4,18.9,81.3,45.5,107.7c26.6,26.4,60,39.6,100.3,39.6
	c56.6,0,102.6-22.9,138.2-68.6l66.5,63.5c-22,32.9-51.4,58.3-88.1,76.5C1955.7,1748.9,1914.4,1757.9,1868.7,1757.9z M1854,1287
	c-33.9,0-61.2,11.9-82.1,35.6c-20.8,23.7-34.1,56.7-39.9,99.1h235.2v-9.2c-2.7-41.3-13.7-72.6-33-93.7
	C1914.9,1297.6,1888.2,1287,1854,1287z"/>
<path class="st0" d="M2161.9,1467.8c0-53.9,10.7-102.4,32-145.5c21.3-43.2,51.3-76.4,89.9-99.6c38.6-23.2,83-34.8,133.1-34.8
	c74.2,0,134.4,23.9,180.6,71.6c46.2,47.8,71.2,111.1,74.9,190l0.5,29c0,54.2-10.4,102.6-31.2,145.3c-20.8,42.7-50.6,75.7-89.4,99.1
	c-38.8,23.4-83.6,35-134.4,35c-77.6,0-139.6-25.8-186.2-77.5c-46.6-51.6-69.9-120.5-69.9-206.5V1467.8z M2285.3,1478.5
	c0,56.6,11.7,100.8,35.1,132.9c23.4,32,55.9,48,97.5,48c41.7,0,74.1-16.3,97.3-48.8c23.2-32.5,34.8-80.1,34.8-142.8
	c0-55.5-11.9-99.6-35.8-132.1c-23.9-32.5-56.3-48.8-97.3-48.8c-40.3,0-72.3,16-96,48C2297.2,1367,2285.3,1414.8,2285.3,1478.5z"/>
<path class="st0" d="M2908.7,1747.8h-123.5V967.4h123.5V1747.8z"/>
</svg>
