<?xml version="1.0" encoding="utf-8"?>
<!-- Generator: Adobe Illustrator 22.0.0, SVG Export Plug-In . SVG Version: 6.00 Build 0)  -->
<svg version="1.1" id="Capa_1" xmlns="http://www.w3.org/2000/svg" xmlns:xlink="http://www.w3.org/1999/xlink" x="0px" y="0px"
	 viewBox="0 0 3061.4 3061.4" style="enable-background:new 0 0 3061.4 3061.4;" xml:space="preserve">
<style type="text/css">
	.st0{fill:#FFFFFF;}
</style>
<g id="XMLID_5_">
	<g>
		<path class="st0" d="M2086.7,1470c0,21.2-0.9,42.3-2.7,63h-228v-440.1l77-77C2029.4,1141.7,2086.7,1299.1,2086.7,1470z"/>
		<path class="st0" d="M1856,1532.9h228c-14.7,177.8-91.8,338-209.3,458.6H1856V1532.9z"/>
		<path class="st0" d="M1932.9,1015.9l-77,77V955.4h25.4C1899.6,974.6,1916.9,994.8,1932.9,1015.9z"/>
		<path class="st0" d="M1881.4,955.4H1856v-25.5C1864.6,938.1,1873.2,946.6,1881.4,955.4z"/>
		<path class="st0" d="M1874.7,1991.5c-6.1,6.3-12.3,12.5-18.7,18.5v-18.5H1874.7z"/>
		<path class="st0" d="M1856,1991.5v18.5c-63.5,60.8-137.6,110.5-219.4,146v-164.5H1856z"/>
		<path class="st0" d="M1856,1532.9v458.6h-219.4V1885c111.7-81.7,189-207.6,205.8-352.1H1856z"/>
		<path class="st0" d="M1856,1092.8v440.1h-13.6c2.3-19.6,3.5-39.6,3.5-59.8c0-105.1-31.8-202.7-86.3-283.9L1856,1092.8z"/>
		<path class="st0" d="M1856,955.4v137.5l-96.4,96.4c-33.2-49.5-74.9-92.9-123-128v-59.8l46.1-46.1H1856z"/>
		<path class="st0" d="M1856,929.9v25.5h-173.4l92.7-92.7C1803.8,883.1,1830.7,905.6,1856,929.9z"/>
		<path class="st0" d="M1845.9,1473.1c0,20.3-1.2,40.2-3.5,59.8h-205.8v-220.7l123-123C1814.1,1270.4,1845.9,1368,1845.9,1473.1z"/>
		<path class="st0" d="M1775.3,862.7l-92.7,92.7h-46.1V783.8C1685.8,805.1,1732.3,831.7,1775.3,862.7z"/>
		<polygon class="st0" points="1682.6,955.4 1636.6,1001.4 1636.6,955.4 		"/>
		<path class="st0" d="M1636.6,1991.5V2156c-91.2,39.6-191.8,61.6-297.6,61.6c-1,0-1.9,0-2.9,0v-226.2H1636.6z"/>
		<path class="st0" d="M1636.6,1885v106.5H1336v-8.5C1448.4,1983,1552.3,1946.6,1636.6,1885z"/>
		<path class="st0" d="M1636.6,1312.2v220.7h-15.3c4.6-20.6,7-42,7-63.9c0-43.5-9.5-84.8-26.5-121.9L1636.6,1312.2z"/>
		<path class="st0" d="M1636.6,1001.4v59.8c-11.6-8.5-23.5-16.5-35.8-23.9L1636.6,1001.4z"/>
		<path class="st0" d="M1636.6,955.4v46.1l-35.8,35.8c-77.2-47-167.7-74-264.7-74v-7.9H1636.6z"/>
		<path class="st0" d="M1636.6,783.8v171.6H1336V722.2c1,0,1.9,0,2.9,0C1444.7,722.2,1545.4,744.2,1636.6,783.8z"/>
		<path class="st0" d="M1628.3,1469c0,22-2.4,43.4-7,63.9h-205.4l185.8-185.8C1618.8,1384.2,1628.3,1425.5,1628.3,1469z"/>
		<path class="st0" d="M1415.9,1532.9h205.4c-29.2,130.7-145.8,228.3-285.2,228.3v-148.4L1415.9,1532.9z"/>
		<path class="st0" d="M1441.5,1196.5L1336,1302v-125.2C1373.2,1176.8,1408.8,1183.8,1441.5,1196.5z"/>
		<polygon class="st0" points="1415.9,1532.9 1336,1612.8 1336,1532.9 		"/>
		<path class="st0" d="M1336,1991.5v226.2c-104.3-0.4-203.5-22.1-293.5-61.1v-165.1H1336z"/>
		<path class="st0" d="M1336,1983v8.5h-293.5v-85.2l9.6-9.6C1133.2,1951.2,1230.9,1983,1336,1983z"/>
		<path class="st0" d="M1336,1612.8v148.4c-43.5,0-84.7-9.5-121.8-26.6L1336,1612.8z"/>
		<path class="st0" d="M1336,1532.9v79.9l-121.8,121.8c-68.8-31.6-123.2-89.1-150.7-160.1l41.6-41.6H1336z"/>
		<path class="st0" d="M1336,1176.8V1302L1105,1532.9h-54.2c-4.6-20.6-7-42-7-63.9C1043.8,1307.6,1174.6,1176.8,1336,1176.8z"/>
		<path class="st0" d="M1336,955.4v7.9c-109.3,0-210.5,34.4-293.5,93V955.4H1336z"/>
		<path class="st0" d="M1336,722.2v233.2h-293.5V783.3C1132.5,744.3,1231.7,722.6,1336,722.2z"/>
		<path class="st0" d="M1105,1532.9l-41.6,41.6c-5.2-13.4-9.5-27.3-12.6-41.6H1105z"/>
		<path class="st0" d="M1042.5,1991.5v165.1c-56.5-24.4-109.4-55.6-157.6-92.6l72.5-72.5H1042.5z"/>
		<polygon class="st0" points="1042.5,1906.3 1042.5,1991.5 957.3,1991.5 		"/>
		<path class="st0" d="M1042.5,955.4v100.8c-130.9,92.3-216.4,244.6-216.4,416.9c0,20.3,1.2,40.2,3.5,59.8h-9.1V955.4H1042.5z"/>
		<path class="st0" d="M1042.5,783.3v172.1h-222v-24.2C884.6,869.4,959.7,819.1,1042.5,783.3z"/>
		<path class="st0" d="M900.1,1737.8l-79.6,79.6v-284.6h9.1C838.3,1607.3,863,1676.8,900.1,1737.8z"/>
		<path class="st0" d="M820.5,1532.9v284.6l-88.8,88.8c-76.9-106.8-126.2-234.7-137.8-373.4H820.5z"/>
		<path class="st0" d="M820.5,955.4v577.6H593.9c-1.8-20.7-2.7-41.7-2.7-63c0-199.4,78-380.6,205.2-514.6H820.5z"/>
		<path class="st0" d="M820.5,931.1v24.2h-24.1C804.3,947.1,812.3,939,820.5,931.1z"/>
	</g>
	<g>
	</g>
</g>
</svg>
